<svg width="20" height="5" viewBox="0 0 145 68" fill="none" xmlns="http://www.w3.org/2000/svg">
<path d="M9.93293 23.5993C10.9978 22.5377 12.2456 21.7248 13.6765 21.1608C15.1074 20.5637 16.6048 20.2651 18.1688 20.2651C21.2302 20.2651 23.5262 21.1111 25.0569 22.8031C26.5876 24.4951 27.353 26.9335 27.353 30.1184V47.1378H17.4201V31.3127C17.4201 30.1848 17.1206 29.289 16.5216 28.6255C15.9559 27.9288 15.1406 27.5804 14.0758 27.5804C12.8446 27.5804 11.8463 27.9785 11.081 28.7748C10.3156 29.571 9.93293 30.5497 9.93293 31.7109V47.1378H0V0H9.93293V6.27029V23.5993Z" fill="#373737"/>
<path d="M33.6418 47.1378V20.8623H43.5747V47.1378H33.6418Z" fill="#373737"/>
<path d="M67.2844 20.2651C70.8449 20.2651 73.5902 21.4263 75.5202 23.7486C77.4502 26.0709 78.4152 29.5046 78.4152 34.0498C78.4152 38.5617 77.4502 41.9789 75.5202 44.3012C73.5902 46.5904 70.8449 47.7349 67.2844 47.7349C64.223 47.7349 61.7605 46.7396 59.8971 44.7491V68H49.9641V20.8623H58.0502L58.8988 24.5946C60.8288 21.7082 63.624 20.2651 67.2844 20.2651ZM64.1897 27.5804C62.7255 27.5804 61.6274 28.0947 60.8953 29.1231C60.1633 30.1516 59.7972 31.4952 59.7972 33.154V34.7962C59.7972 36.455 60.1633 37.8153 60.8953 38.8769C61.6274 39.9054 62.7255 40.4196 64.1897 40.4196C67.0514 40.4196 68.4823 38.711 68.4823 35.2939V32.6564C68.4823 29.2724 67.0514 27.5804 64.1897 27.5804Z" fill="#373737"/>
<path d="M100.577 20.2651C104.137 20.2651 106.883 21.4263 108.813 23.7486C110.743 26.0709 111.708 29.5046 111.708 34.0498C111.708 38.5617 110.743 41.9789 108.813 44.3012C106.883 46.5904 104.137 47.7349 100.577 47.7349C97.5153 47.7349 95.0529 46.7396 93.1894 44.7491V68H83.2565V20.8623H91.3426L92.1912 24.5946C94.1212 21.7082 96.9164 20.2651 100.577 20.2651ZM97.4821 27.5804C96.0179 27.5804 94.9198 28.0947 94.1877 29.1231C93.4557 30.1516 93.0896 31.4952 93.0896 33.154V34.7962C93.0896 36.455 93.4557 37.8153 94.1877 38.8769C94.9198 39.9054 96.0179 40.4196 97.4821 40.4196C100.344 40.4196 101.775 38.711 101.775 35.2939V32.6564C101.775 29.2724 100.344 27.5804 97.4821 27.5804Z" fill="#373737"/>
<path d="M130.126 20.2651C134.751 20.2651 138.378 21.4428 141.007 23.7983C143.669 26.1207 145 29.5212 145 34C145 38.4788 143.669 41.8959 141.007 44.2514C138.378 46.5738 134.751 47.7349 130.126 47.7349C125.5 47.7349 121.873 46.5738 119.244 44.2514C116.615 41.9291 115.301 38.512 115.301 34C115.301 29.4881 116.615 26.0709 119.244 23.7486C121.873 21.4263 125.5 20.2651 130.126 20.2651ZM130.126 26.9833C126.865 26.9833 125.234 28.8577 125.234 32.6066V35.4432C125.234 39.1589 126.865 41.0168 130.126 41.0168C133.42 41.0168 135.067 39.1589 135.067 35.4432V32.6066C135.067 28.8577 133.42 26.9833 130.126 26.9833Z" fill="#373737"/>
<path d="M33.6418 17.7769V10.3012H43.5747V17.7769H33.6418Z" fill="#373737"/>
</svg>
