<svg width="28" height="28" viewBox="0 0 33 30" fill="none" xmlns="http://www.w3.org/2000/svg">
<path fill-rule="evenodd" clip-rule="evenodd" d="M4.90667 0.266663H4.78334C4.21847 0.266663 3.73254 0.266663 3.30334 0.359596C2.63891 0.50549 2.0314 0.817568 1.54814 1.26125C1.06487 1.70494 0.724707 2.2629 0.565341 2.87333C0.466675 3.26773 0.466675 3.712 0.466675 4.23333V9.9C0.466675 10.4191 0.466675 10.8656 0.567808 11.26C0.726575 11.8706 1.06619 12.4288 1.54902 12.8729C2.03185 13.317 2.63905 13.6296 3.30334 13.776C3.73254 13.8667 4.21601 13.8667 4.78334 13.8667H10.95C11.5149 13.8667 12.0008 13.8667 12.43 13.7737C13.0944 13.6278 13.7019 13.3158 14.1852 12.8721C14.6685 12.4284 15.0086 11.8704 15.168 11.26C15.2667 10.8656 15.2667 10.4213 15.2667 9.9V4.23333C15.2667 3.71426 15.2667 3.26773 15.1655 2.87333C15.0068 2.26277 14.6672 1.70452 14.1843 1.26044C13.7015 0.816354 13.0943 0.503773 12.43 0.357329C12.0008 0.266663 11.5173 0.266663 10.95 0.266663H4.90667ZM3.87807 2.56506C3.98414 2.5424 4.14941 2.53333 4.90667 2.53333H10.8267C11.5864 2.53333 11.7492 2.54013 11.8553 2.56506C12.0769 2.61375 12.2794 2.71789 12.4405 2.86593C12.6016 3.01397 12.715 3.20012 12.7679 3.40373C12.7926 3.49893 12.8 3.64853 12.8 4.34666V9.78666C12.8 10.4848 12.7926 10.6344 12.7655 10.7319C12.7125 10.9355 12.5992 11.1216 12.4381 11.2697C12.277 11.4177 12.0744 11.5218 11.8528 11.5705C11.7517 11.5909 11.5889 11.6 10.8267 11.6H4.90667C4.14694 11.6 3.98414 11.5932 3.87807 11.5683C3.65649 11.5196 3.45392 11.4154 3.29282 11.2674C3.13172 11.1194 3.0184 10.9332 2.96541 10.7296C2.94321 10.6367 2.93334 10.4871 2.93334 9.78666V4.34666C2.93334 3.64853 2.94074 3.49893 2.96787 3.40146C3.02086 3.19785 3.13419 3.0117 3.29529 2.86366C3.45639 2.71563 3.65896 2.61149 3.88054 2.5628L3.87807 2.56506ZM22.1733 0.266663H22.05C21.4851 0.266663 20.9992 0.266663 20.57 0.359596C19.9056 0.50549 19.2981 0.817568 18.8148 1.26125C18.3315 1.70494 17.9914 2.2629 17.832 2.87333C17.7333 3.26773 17.7333 3.712 17.7333 4.23333V9.9C17.7333 10.4191 17.7333 10.8656 17.8345 11.26C17.9932 11.8706 18.3329 12.4288 18.8157 12.8729C19.2985 13.317 19.9057 13.6296 20.57 13.776C20.9992 13.8667 21.4827 13.8667 22.05 13.8667H28.2167C28.7815 13.8667 29.2675 13.8667 29.6967 13.7737C30.3611 13.6278 30.9686 13.3158 31.4519 12.8721C31.9351 12.4284 32.2753 11.8704 32.4347 11.26C32.5333 10.8656 32.5333 10.4213 32.5333 9.9V4.23333C32.5333 3.71426 32.5333 3.26773 32.4322 2.87333C32.2734 2.26277 31.9338 1.70452 31.451 1.26044C30.9682 0.816354 30.361 0.503773 29.6967 0.357329C29.2675 0.266663 28.784 0.266663 28.2167 0.266663H22.1733ZM21.1447 2.56506C21.2508 2.5424 21.4161 2.53333 22.1733 2.53333H28.0933C28.8531 2.53333 29.0159 2.54013 29.1219 2.56506C29.3435 2.61375 29.5461 2.71789 29.7072 2.86593C29.8683 3.01397 29.9816 3.20012 30.0346 3.40373C30.0593 3.49893 30.0667 3.64853 30.0667 4.34666V9.78666C30.0667 10.4848 30.0568 10.6344 30.0321 10.7319C29.9792 10.9355 29.8658 11.1216 29.7047 11.2697C29.5436 11.4177 29.3411 11.5218 29.1195 11.5705C29.0159 11.5932 28.8531 11.6 28.0933 11.6H22.1733C21.4136 11.6 21.2508 11.5932 21.1447 11.5683C20.9232 11.5196 20.7206 11.4154 20.5595 11.2674C20.3984 11.1194 20.2851 10.9332 20.2321 10.7296C20.2099 10.6367 20.2 10.4871 20.2 9.78666V4.34666C20.2 3.64853 20.2074 3.49893 20.2345 3.40146C20.2875 3.19785 20.4009 3.0117 20.562 2.86366C20.7231 2.71563 20.9256 2.61149 21.1472 2.5628L21.1447 2.56506ZM4.78334 16.1333H10.95C11.5149 16.1333 12.0008 16.1333 12.43 16.2263C13.0944 16.3722 13.7019 16.6842 14.1852 17.1279C14.6685 17.5716 15.0086 18.1296 15.168 18.74C15.2667 19.1344 15.2667 19.5787 15.2667 20.1V25.7667C15.2667 26.2857 15.2667 26.7323 15.1655 27.1267C15.0068 27.7372 14.6672 28.2955 14.1843 28.7396C13.7015 29.1836 13.0943 29.4962 12.43 29.6427C12.0008 29.7333 11.5173 29.7333 10.95 29.7333H4.78334C4.21847 29.7333 3.73254 29.7333 3.30334 29.6404C2.63891 29.4945 2.0314 29.1824 1.54814 28.7387C1.06487 28.2951 0.724707 27.7371 0.565341 27.1267C0.466675 26.7323 0.466675 26.288 0.466675 25.7667V20.1C0.466675 19.5809 0.466675 19.1344 0.567808 18.74C0.726575 18.1294 1.06619 17.5712 1.54902 17.1271C2.03185 16.683 2.63905 16.3704 3.30334 16.224C3.73254 16.1333 4.21601 16.1333 4.78334 16.1333ZM4.90667 18.4C4.14694 18.4 3.98414 18.4068 3.87807 18.4317C3.65649 18.4804 3.45392 18.5846 3.29282 18.7326C3.13172 18.8806 3.0184 19.0668 2.96541 19.2704C2.94321 19.3633 2.93334 19.5129 2.93334 20.2133V25.6533C2.93334 26.3515 2.94074 26.5011 2.96787 26.5985C3.02086 26.8021 3.13419 26.9883 3.29529 27.1363C3.45639 27.2844 3.65896 27.3885 3.88054 27.4372C3.98414 27.4599 4.14694 27.4667 4.90667 27.4667H10.8267C11.5864 27.4667 11.7492 27.4576 11.8553 27.4349C12.0769 27.3862 12.2794 27.2821 12.4405 27.1341C12.6016 26.986 12.715 26.7999 12.7679 26.5963C12.7926 26.5011 12.8 26.3515 12.8 25.6533V20.2133C12.8 19.5152 12.7926 19.3656 12.7655 19.2681C12.7125 19.0645 12.5992 18.8784 12.4381 18.7303C12.277 18.5823 12.0744 18.4782 11.8528 18.4295C11.7517 18.4091 11.5889 18.4 10.8267 18.4H4.90667ZM22.1733 16.1333H22.05C21.4851 16.1333 20.9992 16.1333 20.57 16.2263C19.9056 16.3722 19.2981 16.6842 18.8148 17.1279C18.3315 17.5716 17.9914 18.1296 17.832 18.74C17.7333 19.1344 17.7333 19.5787 17.7333 20.1V25.7667C17.7333 26.2857 17.7333 26.7323 17.8345 27.1267C17.9932 27.7372 18.3329 28.2955 18.8157 28.7396C19.2985 29.1836 19.9057 29.4962 20.57 29.6427C20.9992 29.7356 21.4851 29.7356 22.05 29.7356H28.2167C28.7815 29.7356 29.2675 29.7356 29.6967 29.6427C30.3607 29.4964 30.9676 29.1842 31.4504 28.7405C31.9332 28.2968 32.273 27.7391 32.4322 27.1289C32.5333 26.7345 32.5333 26.288 32.5333 25.7689V20.1C32.5333 19.5809 32.5333 19.1344 32.4322 18.74C32.2734 18.1294 31.9338 17.5712 31.451 17.1271C30.9682 16.683 30.361 16.3704 29.6967 16.224C29.2675 16.1333 28.784 16.1333 28.2167 16.1333H22.1733ZM21.1447 18.4317C21.2508 18.4091 21.4161 18.4 22.1733 18.4H28.0933C28.8531 18.4 29.0159 18.4068 29.1219 18.4317C29.3435 18.4804 29.5461 18.5846 29.7072 18.7326C29.8683 18.8806 29.9816 19.0668 30.0346 19.2704C30.0593 19.3656 30.0667 19.5152 30.0667 20.2133V25.6533C30.0667 26.3515 30.0568 26.5011 30.0321 26.5985C29.9792 26.8021 29.8658 26.9883 29.7047 27.1363C29.5436 27.2844 29.3411 27.3885 29.1195 27.4372C29.0159 27.4599 28.8531 27.4667 28.0933 27.4667H22.1733C21.4136 27.4667 21.2508 27.4576 21.1447 27.4349C20.9232 27.3862 20.7206 27.2821 20.5595 27.1341C20.3984 26.986 20.2851 26.7999 20.2321 26.5963C20.2099 26.5033 20.2 26.3537 20.2 25.6533V20.2133C20.2 19.5152 20.2074 19.3656 20.2345 19.2681C20.2875 19.0645 20.4009 18.8784 20.562 18.7303C20.7231 18.5823 20.9256 18.4782 21.1472 18.4295L21.1447 18.4317Z" fill="black"/>
</svg>
