<svg width="28" height="28" viewBox="0 0 34 34" fill="none" xmlns="http://www.w3.org/2000/svg">
<path d="M20.1905 34H13.8123C13.4127 34.0001 13.025 33.8676 12.7136 33.6246C12.4022 33.3815 12.1858 33.0425 12.1003 32.6638L11.3871 29.461C10.4358 29.0566 9.53366 28.5508 8.69742 27.9531L5.4785 28.9476C5.09749 29.0655 4.68639 29.0534 4.31345 28.9133C3.94052 28.7732 3.6282 28.5136 3.42835 28.1775L0.232213 22.8208C0.0344608 22.4844 -0.0397702 22.0929 0.021664 21.7103C0.0830983 21.3277 0.27656 20.9766 0.5704 20.7145L3.06738 18.5045C2.95383 17.5034 2.95383 16.4932 3.06738 15.4921L0.5704 13.2872C0.276144 13.025 0.082419 12.6736 0.0209747 12.2906C-0.0404696 11.9076 0.0340122 11.5157 0.232213 11.1792L3.42134 5.8191C3.62119 5.48304 3.93351 5.2234 4.30645 5.08332C4.67938 4.94323 5.09049 4.93112 5.47149 5.049L8.69041 6.0435C9.11796 5.7375 9.56304 5.4519 10.0221 5.1935C10.4655 4.9521 10.921 4.7328 11.3871 4.5373L12.1021 1.3379C12.1872 0.959136 12.4032 0.619969 12.7142 0.376633C13.0253 0.133297 13.4127 0.000407942 13.8123 0H20.1905C20.5901 0.000407942 20.9776 0.133297 21.2886 0.376633C21.5997 0.619969 21.8156 0.959136 21.9008 1.3379L22.6227 4.539C23.5735 4.94343 24.475 5.44917 25.3107 6.0469L28.5313 5.0524C28.9121 4.93496 29.3228 4.94729 29.6954 5.08735C30.0679 5.22742 30.38 5.4868 30.5797 5.8225L33.7689 11.1826C34.1754 11.8745 34.0352 12.75 33.4307 13.2889L30.9337 15.4989C31.0472 16.5 31.0472 17.5102 30.9337 18.5113L33.4307 20.7213C34.0352 21.2619 34.1754 22.1357 33.7689 22.8276L30.5797 28.1877C30.3799 28.5238 30.0676 28.7834 29.6946 28.9235C29.3217 29.0636 28.9106 29.0757 28.5296 28.9578L25.3107 27.9633C24.4751 28.5606 23.5735 29.0658 22.6227 29.4695L21.9008 32.6638C21.8153 33.0423 21.5992 33.381 21.2881 33.624C20.9771 33.867 20.5899 33.9997 20.1905 34ZM9.32648 24.1893L10.7633 25.2093C11.0875 25.4405 11.4239 25.653 11.7744 25.8468C12.1038 26.0321 12.4403 26.1987 12.789 26.35L14.4238 27.0453L15.2246 30.6H18.7817L19.5825 27.0436L21.2174 26.3483C21.9305 26.0423 22.6087 25.6632 23.2377 25.2161L24.6746 24.1961L28.2527 25.3011L30.0313 22.3125L27.2574 19.8594L27.4537 18.139C27.5413 17.3859 27.5413 16.626 27.4537 15.8746L27.2574 14.1542L30.033 11.696L28.2527 8.7057L24.6763 9.8107L23.2377 8.7907C22.6083 8.34137 21.931 7.95895 21.2174 7.65L19.5825 6.9547L18.7817 3.4H15.2246L14.4186 6.9564L12.789 7.65C12.0744 7.95363 11.3967 8.33336 10.7686 8.7822L9.32999 9.8022L5.75536 8.6972L3.9733 11.696L6.74714 14.1457L6.55089 15.8678C6.46328 16.6209 6.46328 17.3808 6.55089 18.1322L6.74714 19.8526L3.9733 22.3057L5.75186 25.2943L9.32648 24.1893ZM16.9944 23.8C15.1355 23.8 13.3527 23.0836 12.0382 21.8083C10.7238 20.5331 9.98533 18.8035 9.98533 17C9.98533 15.1965 10.7238 13.4669 12.0382 12.1917C13.3527 10.9164 15.1355 10.2 16.9944 10.2C18.8533 10.2 20.6361 10.9164 21.9506 12.1917C23.265 13.4669 24.0035 15.1965 24.0035 17C24.0035 18.8035 23.265 20.5331 21.9506 21.8083C20.6361 23.0836 18.8533 23.8 16.9944 23.8ZM16.9944 13.6C16.3081 13.6007 15.6372 13.7968 15.0648 14.1641C14.4924 14.5313 14.0437 15.0536 13.7744 15.666C13.5052 16.2784 13.4272 16.954 13.5501 17.609C13.673 18.2641 13.9915 18.8697 14.466 19.3507C14.9404 19.8317 15.55 20.167 16.2191 20.315C16.8882 20.4629 17.5874 20.4171 18.2299 20.183C18.8723 19.949 19.4298 19.5371 19.8332 18.9984C20.2366 18.4598 20.4681 17.8181 20.4989 17.153V17.833V17C20.4989 16.0983 20.1297 15.2335 19.4725 14.5958C18.8153 13.9582 17.9239 13.6 16.9944 13.6Z" fill="black"/>
</svg>
