<svg width="28" height="28" viewBox="0 0 41 37" fill="none" xmlns="http://www.w3.org/2000/svg">
<path d="M5.33333 12.6667H1V36H40V12.6667H36.75M28.0833 10.3333C28.9313 10.8614 29.6575 11.589 30.2076 12.4618C30.7577 13.3345 31.1176 14.3299 31.2602 15.3735C31.4029 16.4172 31.3247 17.482 31.0315 18.4885C30.7383 19.495 30.2377 20.4171 29.567 21.1859C28.8964 21.9548 28.0731 22.5504 27.1586 22.9284C26.2441 23.3064 25.2621 23.4569 24.286 23.3687C23.31 23.2804 22.365 22.9558 21.5218 22.419C20.6786 21.8822 19.959 21.1471 19.4167 20.2687M22.6667 8C22.6667 9.85651 21.9818 11.637 20.7629 12.9497C19.5439 14.2625 17.8906 15 16.1667 15C14.4428 15 12.7895 14.2625 11.5705 12.9497C10.3515 11.637 9.66667 9.85651 9.66667 8C9.66667 6.14348 10.3515 4.36301 11.5705 3.05025C12.7895 1.7375 14.4428 1 16.1667 1C17.8906 1 19.5439 1.7375 20.7629 3.05025C21.9818 4.36301 22.6667 6.14348 22.6667 8Z" stroke="black" stroke-width="2" stroke-linecap="round" stroke-linejoin="round"/>
</svg>
